<svg xmlns="http://www.w3.org/2000/svg" xmlns:xlink="http://www.w3.org/1999/xlink" width="500" zoomAndPan="magnify" viewBox="0 0 375 374.999991" height="500" preserveAspectRatio="xMidYMid meet" version="1.0"><defs><clipPath id="b0d438dd5a"><path d="M 1.164062 155 L 223 155 L 223 337.5 L 1.164062 337.5 Z M 1.164062 155 " clip-rule="nonzero"/></clipPath><clipPath id="16be4c8b22"><path d="M 53 37.5 L 373.914062 37.5 L 373.914062 337.5 L 53 337.5 Z M 53 37.5 " clip-rule="nonzero"/></clipPath></defs><g clip-path="url(#b0d438dd5a)"><path fill="#3252df" d="M 197.652344 263.332031 C 218.222656 288.332031 222.46875 307.003906 222.285156 337.484375 L 1.164062 337.484375 L 1.164062 184.628906 L 7.015625 182.207031 L 71.742188 155.566406 L 71.742188 175.875 L 20.019531 197.152344 L 20.019531 318.664062 L 203.316406 318.664062 C 201.863281 306.667969 196.011719 290.90625 183.15625 275.253906 C 171.976562 261.652344 155.546875 248.277344 132.144531 237.582031 C 117.539062 250.960938 119.660156 261.800781 133.523438 274.695312 L 120.703125 288.445312 C 105.164062 274.023438 97.003906 255.503906 108.929688 236.128906 C 86.535156 239.632812 83.144531 255.019531 84.632812 275.21875 L 65.851562 276.519531 C 63.730469 247.792969 72.449219 224.203125 103.152344 218.054688 C 87.691406 211.160156 72.261719 216.007812 63.46875 230.761719 L 47.332031 221.109375 C 63.097656 194.691406 92.496094 189.402344 118.132812 204.679688 C 119.550781 205.535156 120.964844 206.429688 122.382812 207.398438 C 126.742188 180.046875 143.734375 165.589844 171.867188 171.625 L 167.953125 190.035156 C 155.023438 187.238281 146.566406 190.183594 142.503906 203.113281 C 162.027344 192.382812 183.566406 197.597656 201.902344 208.441406 L 192.324219 224.761719 C 177.382812 215.933594 160.539062 211.460938 146.117188 223.457031 C 169.183594 234.972656 185.878906 249.019531 197.652344 263.332031 Z M 197.652344 263.332031 " fill-opacity="1" fill-rule="evenodd"/></g><g clip-path="url(#16be4c8b22)"><path fill="#ff498b" d="M 151.261719 121.617188 C 129.648438 130.488281 119.066406 146.136719 122.230469 169.800781 L 103.601562 172.222656 C 100.695312 150.460938 106.65625 130.671875 123.535156 116.402344 C 102.855469 116.4375 91.15625 124.824219 84.410156 144.796875 L 66.597656 138.835938 C 76.472656 109.546875 96.558594 96.765625 126.777344 97.695312 C 108.78125 83.835938 83.628906 80.332031 66.078125 96.800781 L 53.183594 83.089844 C 76.546875 61.140625 110.457031 62.855469 135.648438 80.851562 C 136.578125 59.574219 148.875 40.011719 171.160156 37.515625 L 173.207031 56.222656 C 159.792969 57.710938 154.539062 71.351562 154.425781 83.351562 C 170.636719 60.542969 198.734375 57.226562 224.59375 61.996094 L 221.203125 80.480469 C 203.019531 77.125 181.59375 77.835938 169.855469 94.15625 C 196.832031 87.785156 224.816406 95.980469 242.21875 118.152344 L 227.425781 129.78125 C 213.75 112.378906 191.316406 107.085938 170.636719 113.347656 C 204.398438 142.636719 226.71875 174.011719 241.289062 203.96875 C 263.347656 249.394531 267.519531 291.648438 266.625 318.628906 L 354.941406 318.628906 L 354.941406 144.535156 L 281.90625 89.347656 L 250.902344 102.128906 L 250.902344 81.820312 L 279.742188 69.933594 L 284.699219 67.886719 L 288.984375 71.089844 L 370.070312 132.3125 L 373.832031 135.144531 L 373.832031 337.484375 L 246.652344 337.484375 C 246.652344 337.484375 247.773438 328.691406 247.882812 318.628906 C 248.777344 293.921875 245.050781 254.683594 224.371094 212.132812 C 209.800781 182.246094 186.882812 150.757812 151.261719 121.617188 Z M 279.296875 193.871094 L 298.152344 193.871094 L 298.152344 212.726562 L 279.296875 212.726562 Z M 298.152344 183.699219 L 279.296875 183.699219 L 279.296875 164.84375 L 298.152344 164.84375 Z M 308.882812 183.699219 L 308.882812 164.84375 L 327.738281 164.84375 L 327.738281 183.699219 Z M 308.882812 193.871094 L 327.738281 193.871094 L 327.738281 212.726562 L 308.882812 212.726562 Z M 308.882812 193.871094 " fill-opacity="1" fill-rule="evenodd"/></g></svg>